<?xml version="1.0" encoding="UTF-8" standalone="no"?>
<!DOCTYPE svg PUBLIC "-//W3C//DTD SVG 1.1//EN"
 "http://www.w3.org/Graphics/SVG/1.1/DTD/svg11.dtd">
<!-- Generated by graphviz version 2.38.0 (20140413.2041)
 -->
<!-- Title: controllers_diagram Pages: 1 -->
<svg width="1023pt" height="904pt"
 viewBox="0.00 0.00 1023.10 904.00" xmlns="http://www.w3.org/2000/svg" xmlns:xlink="http://www.w3.org/1999/xlink">
<g id="graph0" class="graph" transform="scale(1 1) rotate(0) translate(422.162 482.5)">
<title>controllers_diagram</title>
<polygon fill="none" stroke="none" points="-422.162,421.5 -422.162,-482.5 600.935,-482.5 600.935,421.5 -422.162,421.5"/>
<!-- _diagram_info -->
<g id="node1" class="node"><title>_diagram_info</title>
<text text-anchor="start" x="8.31226" y="282.9" font-family="Times,serif" font-size="13.00">Controllers diagram</text>
<text text-anchor="start" x="8.31226" y="295.9" font-family="Times,serif" font-size="13.00">Date: Oct 22 2015 &#45; 14:50</text>
<text text-anchor="start" x="8.31226" y="308.9" font-family="Times,serif" font-size="13.00">Migration version: 20151007100914</text>
<text text-anchor="start" x="8.31226" y="321.9" font-family="Times,serif" font-size="13.00">Generated by RailRoady 1.3.1</text>
<text text-anchor="start" x="8.31226" y="334.9" font-family="Times,serif" font-size="13.00">http://railroady.prestonlee.com</text>
</g>
<!-- ApplicationController -->
<g id="node2" class="node"><title>ApplicationController</title>
<path fill="none" stroke="black" d="M-310.648,-324C-310.648,-324 -183.352,-324 -183.352,-324 -177.352,-324 -171.352,-330 -171.352,-336 -171.352,-336 -171.352,-430 -171.352,-430 -171.352,-436 -177.352,-442 -183.352,-442 -183.352,-442 -310.648,-442 -310.648,-442 -316.648,-442 -322.648,-436 -322.648,-430 -322.648,-430 -322.648,-336 -322.648,-336 -322.648,-330 -316.648,-324 -310.648,-324"/>
<text text-anchor="middle" x="-247" y="-426.8" font-family="Times,serif" font-size="14.00">ApplicationController</text>
<polyline fill="none" stroke="black" points="-322.648,-420 -171.352,-420 "/>
<text text-anchor="start" x="-314.648" y="-404.8" font-family="Times,serif" font-size="14.00">after_sign_out_path_for</text>
<text text-anchor="start" x="-314.648" y="-390.8" font-family="Times,serif" font-size="14.00">authenticate</text>
<text text-anchor="start" x="-314.648" y="-376.8" font-family="Times,serif" font-size="14.00">redirect_user</text>
<polyline fill="none" stroke="black" points="-322.648,-370 -171.352,-370 "/>
<polyline fill="none" stroke="black" points="-322.648,-346 -171.352,-346 "/>
<text text-anchor="start" x="-314.648" y="-330.8" font-family="Times,serif" font-size="14.00">_layout</text>
</g>
<!-- BillingSitesController -->
<g id="node3" class="node"><title>BillingSitesController</title>
<path fill="none" stroke="black" d="M107.479,94C107.479,94 242.521,94 242.521,94 248.521,94 254.521,88 254.521,82 254.521,82 254.521,-194 254.521,-194 254.521,-200 248.521,-206 242.521,-206 242.521,-206 107.479,-206 107.479,-206 101.479,-206 95.479,-200 95.479,-194 95.479,-194 95.479,82 95.479,82 95.479,88 101.479,94 107.479,94"/>
<text text-anchor="middle" x="175" y="-190.8" font-family="Times,serif" font-size="14.00">BillingSitesController</text>
<polyline fill="none" stroke="black" points="95.479,-184 254.521,-184 "/>
<text text-anchor="start" x="103.479" y="-168.8" font-family="Times,serif" font-size="14.00">create</text>
<text text-anchor="start" x="103.479" y="-154.8" font-family="Times,serif" font-size="14.00">destroy</text>
<text text-anchor="start" x="103.479" y="-140.8" font-family="Times,serif" font-size="14.00">edit</text>
<text text-anchor="start" x="103.479" y="-126.8" font-family="Times,serif" font-size="14.00">format_converter</text>
<text text-anchor="start" x="103.479" y="-112.8" font-family="Times,serif" font-size="14.00">generate_date_ranges</text>
<text text-anchor="start" x="103.479" y="-98.8" font-family="Times,serif" font-size="14.00">get_prediction_invoice</text>
<text text-anchor="start" x="103.479" y="-84.8" font-family="Times,serif" font-size="14.00">index</text>
<text text-anchor="start" x="103.479" y="-70.8" font-family="Times,serif" font-size="14.00">isDate</text>
<text text-anchor="start" x="103.479" y="-56.8" font-family="Times,serif" font-size="14.00">new</text>
<text text-anchor="start" x="103.479" y="-42.8" font-family="Times,serif" font-size="14.00">predict_format_converter</text>
<text text-anchor="start" x="103.479" y="-28.8" font-family="Times,serif" font-size="14.00">show</text>
<text text-anchor="start" x="103.479" y="-14.8" font-family="Times,serif" font-size="14.00">show_predict_usage</text>
<text text-anchor="start" x="103.479" y="-0.8" font-family="Times,serif" font-size="14.00">show_usage</text>
<text text-anchor="start" x="103.479" y="13.2" font-family="Times,serif" font-size="14.00">update</text>
<polyline fill="none" stroke="black" points="95.479,20 254.521,20 "/>
<polyline fill="none" stroke="black" points="95.479,44 254.521,44 "/>
<text text-anchor="start" x="103.479" y="59.2" font-family="Times,serif" font-size="14.00">_layout</text>
<text text-anchor="start" x="103.479" y="73.2" font-family="Times,serif" font-size="14.00">billing_site_params</text>
<text text-anchor="start" x="103.479" y="87.2" font-family="Times,serif" font-size="14.00">set_billing_site</text>
</g>
<!-- DashingController -->
<g id="node4" class="node"><title>DashingController</title>
<path fill="none" stroke="black" d="M-406.104,-191C-406.104,-191 -309.896,-191 -309.896,-191 -303.896,-191 -297.896,-197 -297.896,-203 -297.896,-203 -297.896,-269 -297.896,-269 -297.896,-275 -303.896,-281 -309.896,-281 -309.896,-281 -406.104,-281 -406.104,-281 -412.104,-281 -418.104,-275 -418.104,-269 -418.104,-269 -418.104,-203 -418.104,-203 -418.104,-197 -412.104,-191 -406.104,-191"/>
<text text-anchor="middle" x="-358" y="-265.8" font-family="Times,serif" font-size="14.00">DashingController</text>
<polyline fill="none" stroke="black" points="-418.104,-259 -297.896,-259 "/>
<text text-anchor="start" x="-410.104" y="-243.8" font-family="Times,serif" font-size="14.00">dashboard</text>
<polyline fill="none" stroke="black" points="-418.104,-237 -297.896,-237 "/>
<polyline fill="none" stroke="black" points="-418.104,-213 -297.896,-213 "/>
<text text-anchor="start" x="-410.104" y="-197.8" font-family="Times,serif" font-size="14.00">_layout</text>
</g>
<!-- FtpServersController -->
<g id="node5" class="node"><title>FtpServersController</title>
<path fill="none" stroke="black" d="M-273.104,284C-273.104,284 -162.896,284 -162.896,284 -156.896,284 -150.896,278 -150.896,272 -150.896,272 -150.896,94 -150.896,94 -150.896,88 -156.896,82 -162.896,82 -162.896,82 -273.104,82 -273.104,82 -279.104,82 -285.104,88 -285.104,94 -285.104,94 -285.104,272 -285.104,272 -285.104,278 -279.104,284 -273.104,284"/>
<text text-anchor="middle" x="-218" y="97.2" font-family="Times,serif" font-size="14.00">FtpServersController</text>
<polyline fill="none" stroke="black" points="-285.104,104 -150.896,104 "/>
<text text-anchor="start" x="-277.104" y="119.2" font-family="Times,serif" font-size="14.00">create</text>
<text text-anchor="start" x="-277.104" y="133.2" font-family="Times,serif" font-size="14.00">destroy</text>
<text text-anchor="start" x="-277.104" y="147.2" font-family="Times,serif" font-size="14.00">edit</text>
<text text-anchor="start" x="-277.104" y="161.2" font-family="Times,serif" font-size="14.00">index</text>
<text text-anchor="start" x="-277.104" y="175.2" font-family="Times,serif" font-size="14.00">new</text>
<text text-anchor="start" x="-277.104" y="189.2" font-family="Times,serif" font-size="14.00">show</text>
<text text-anchor="start" x="-277.104" y="203.2" font-family="Times,serif" font-size="14.00">update</text>
<polyline fill="none" stroke="black" points="-285.104,210 -150.896,210 "/>
<polyline fill="none" stroke="black" points="-285.104,234 -150.896,234 "/>
<text text-anchor="start" x="-277.104" y="249.2" font-family="Times,serif" font-size="14.00">_layout</text>
<text text-anchor="start" x="-277.104" y="263.2" font-family="Times,serif" font-size="14.00">ftp_server_params</text>
<text text-anchor="start" x="-277.104" y="277.2" font-family="Times,serif" font-size="14.00">set_ftp_server</text>
</g>
<!-- InvoicesController -->
<g id="node6" class="node"><title>InvoicesController</title>
<path fill="none" stroke="black" d="M259.489,-248C259.489,-248 394.511,-248 394.511,-248 400.511,-248 406.511,-254 406.511,-260 406.511,-260 406.511,-466 406.511,-466 406.511,-472 400.511,-478 394.511,-478 394.511,-478 259.489,-478 259.489,-478 253.489,-478 247.489,-472 247.489,-466 247.489,-466 247.489,-260 247.489,-260 247.489,-254 253.489,-248 259.489,-248"/>
<text text-anchor="middle" x="327" y="-462.8" font-family="Times,serif" font-size="14.00">InvoicesController</text>
<polyline fill="none" stroke="black" points="247.489,-456 406.511,-456 "/>
<text text-anchor="start" x="255.489" y="-440.8" font-family="Times,serif" font-size="14.00">compare</text>
<text text-anchor="start" x="255.489" y="-426.8" font-family="Times,serif" font-size="14.00">create_generated_invoice</text>
<text text-anchor="start" x="255.489" y="-412.8" font-family="Times,serif" font-size="14.00">create_imported_invoice</text>
<text text-anchor="start" x="255.489" y="-398.8" font-family="Times,serif" font-size="14.00">create_predicted_invoice</text>
<text text-anchor="start" x="255.489" y="-384.8" font-family="Times,serif" font-size="14.00">destroy</text>
<text text-anchor="start" x="255.489" y="-370.8" font-family="Times,serif" font-size="14.00">generateNew</text>
<text text-anchor="start" x="255.489" y="-356.8" font-family="Times,serif" font-size="14.00">import_invoice</text>
<text text-anchor="start" x="255.489" y="-342.8" font-family="Times,serif" font-size="14.00">index</text>
<text text-anchor="start" x="255.489" y="-328.8" font-family="Times,serif" font-size="14.00">predictNew</text>
<text text-anchor="start" x="255.489" y="-314.8" font-family="Times,serif" font-size="14.00">select_date_period</text>
<text text-anchor="start" x="255.489" y="-300.8" font-family="Times,serif" font-size="14.00">show</text>
<polyline fill="none" stroke="black" points="247.489,-294 406.511,-294 "/>
<polyline fill="none" stroke="black" points="247.489,-270 406.511,-270 "/>
<text text-anchor="start" x="255.489" y="-254.8" font-family="Times,serif" font-size="14.00">_layout</text>
</g>
<!-- MeterAggregationsController -->
<g id="node7" class="node"><title>MeterAggregationsController</title>
<path fill="none" stroke="black" d="M-121.2,-210C-121.2,-210 37.2002,-210 37.2002,-210 43.2002,-210 49.2002,-216 49.2002,-222 49.2002,-222 49.2002,-414 49.2002,-414 49.2002,-420 43.2002,-426 37.2002,-426 37.2002,-426 -121.2,-426 -121.2,-426 -127.2,-426 -133.2,-420 -133.2,-414 -133.2,-414 -133.2,-222 -133.2,-222 -133.2,-216 -127.2,-210 -121.2,-210"/>
<text text-anchor="middle" x="-42" y="-410.8" font-family="Times,serif" font-size="14.00">MeterAggregationsController</text>
<polyline fill="none" stroke="black" points="-133.2,-404 49.2002,-404 "/>
<text text-anchor="start" x="-125.2" y="-388.8" font-family="Times,serif" font-size="14.00">create</text>
<text text-anchor="start" x="-125.2" y="-374.8" font-family="Times,serif" font-size="14.00">destroy</text>
<text text-anchor="start" x="-125.2" y="-360.8" font-family="Times,serif" font-size="14.00">edit</text>
<text text-anchor="start" x="-125.2" y="-346.8" font-family="Times,serif" font-size="14.00">index</text>
<text text-anchor="start" x="-125.2" y="-332.8" font-family="Times,serif" font-size="14.00">new</text>
<text text-anchor="start" x="-125.2" y="-318.8" font-family="Times,serif" font-size="14.00">show</text>
<text text-anchor="start" x="-125.2" y="-304.8" font-family="Times,serif" font-size="14.00">truncate</text>
<text text-anchor="start" x="-125.2" y="-290.8" font-family="Times,serif" font-size="14.00">update</text>
<polyline fill="none" stroke="black" points="-133.2,-284 49.2002,-284 "/>
<polyline fill="none" stroke="black" points="-133.2,-260 49.2002,-260 "/>
<text text-anchor="start" x="-125.2" y="-244.8" font-family="Times,serif" font-size="14.00">_layout</text>
<text text-anchor="start" x="-125.2" y="-230.8" font-family="Times,serif" font-size="14.00">meter_aggregation_params</text>
<text text-anchor="start" x="-125.2" y="-216.8" font-family="Times,serif" font-size="14.00">set_meter_aggregation</text>
</g>
<!-- MeterRecordsController -->
<g id="node8" class="node"><title>MeterRecordsController</title>
<path fill="none" stroke="black" d="M-83.3105,189C-83.3105,189 53.3105,189 53.3105,189 59.3105,189 65.3105,183 65.3105,177 65.3105,177 65.3105,-155 65.3105,-155 65.3105,-161 59.3105,-167 53.3105,-167 53.3105,-167 -83.3105,-167 -83.3105,-167 -89.3105,-167 -95.3105,-161 -95.3105,-155 -95.3105,-155 -95.3105,177 -95.3105,177 -95.3105,183 -89.3105,189 -83.3105,189"/>
<text text-anchor="middle" x="-15" y="-151.8" font-family="Times,serif" font-size="14.00">MeterRecordsController</text>
<polyline fill="none" stroke="black" points="-95.3105,-145 65.3105,-145 "/>
<text text-anchor="start" x="-87.3105" y="-129.8" font-family="Times,serif" font-size="14.00">create</text>
<text text-anchor="start" x="-87.3105" y="-115.8" font-family="Times,serif" font-size="14.00">destroy</text>
<text text-anchor="start" x="-87.3105" y="-101.8" font-family="Times,serif" font-size="14.00">edit</text>
<text text-anchor="start" x="-87.3105" y="-87.8" font-family="Times,serif" font-size="14.00">get_date_ranges</text>
<text text-anchor="start" x="-87.3105" y="-73.8" font-family="Times,serif" font-size="14.00">get_dtps</text>
<text text-anchor="start" x="-87.3105" y="-59.8" font-family="Times,serif" font-size="14.00">get_meters</text>
<text text-anchor="start" x="-87.3105" y="-45.8" font-family="Times,serif" font-size="14.00">import_nem12</text>
<text text-anchor="start" x="-87.3105" y="-31.8" font-family="Times,serif" font-size="14.00">index</text>
<text text-anchor="start" x="-87.3105" y="-17.8" font-family="Times,serif" font-size="14.00">multiple_predicted_usage</text>
<text text-anchor="start" x="-87.3105" y="-3.8" font-family="Times,serif" font-size="14.00">multiple_usage</text>
<text text-anchor="start" x="-87.3105" y="10.2" font-family="Times,serif" font-size="14.00">new</text>
<text text-anchor="start" x="-87.3105" y="24.2" font-family="Times,serif" font-size="14.00">show</text>
<text text-anchor="start" x="-87.3105" y="38.2" font-family="Times,serif" font-size="14.00">single_predicted_usage</text>
<text text-anchor="start" x="-87.3105" y="52.2" font-family="Times,serif" font-size="14.00">single_usage</text>
<text text-anchor="start" x="-87.3105" y="66.2" font-family="Times,serif" font-size="14.00">truncate</text>
<text text-anchor="start" x="-87.3105" y="80.2" font-family="Times,serif" font-size="14.00">truncate_aggregations</text>
<text text-anchor="start" x="-87.3105" y="94.2" font-family="Times,serif" font-size="14.00">truncate_records</text>
<text text-anchor="start" x="-87.3105" y="108.2" font-family="Times,serif" font-size="14.00">update</text>
<polyline fill="none" stroke="black" points="-95.3105,115 65.3105,115 "/>
<polyline fill="none" stroke="black" points="-95.3105,139 65.3105,139 "/>
<text text-anchor="start" x="-87.3105" y="154.2" font-family="Times,serif" font-size="14.00">_layout</text>
<text text-anchor="start" x="-87.3105" y="168.2" font-family="Times,serif" font-size="14.00">meter_record_params</text>
<text text-anchor="start" x="-87.3105" y="182.2" font-family="Times,serif" font-size="14.00">set_meter_record</text>
</g>
<!-- MetersController -->
<g id="node9" class="node"><title>MetersController</title>
<path fill="none" stroke="black" d="M353.79,341C353.79,341 442.21,341 442.21,341 448.21,341 454.21,335 454.21,329 454.21,329 454.21,193 454.21,193 454.21,187 448.21,181 442.21,181 442.21,181 353.79,181 353.79,181 347.79,181 341.79,187 341.79,193 341.79,193 341.79,329 341.79,329 341.79,335 347.79,341 353.79,341"/>
<text text-anchor="middle" x="398" y="196.2" font-family="Times,serif" font-size="14.00">MetersController</text>
<polyline fill="none" stroke="black" points="341.79,203 454.21,203 "/>
<text text-anchor="start" x="349.79" y="218.2" font-family="Times,serif" font-size="14.00">create</text>
<text text-anchor="start" x="349.79" y="232.2" font-family="Times,serif" font-size="14.00">destroy</text>
<text text-anchor="start" x="349.79" y="246.2" font-family="Times,serif" font-size="14.00">update</text>
<polyline fill="none" stroke="black" points="341.79,253 454.21,253 "/>
<polyline fill="none" stroke="black" points="341.79,277 454.21,277 "/>
<text text-anchor="start" x="349.79" y="292.2" font-family="Times,serif" font-size="14.00">_layout</text>
<text text-anchor="start" x="349.79" y="306.2" font-family="Times,serif" font-size="14.00">meter_params</text>
<text text-anchor="start" x="349.79" y="320.2" font-family="Times,serif" font-size="14.00">set_meter</text>
<text text-anchor="start" x="349.79" y="334.2" font-family="Times,serif" font-size="14.00">set_user</text>
</g>
<!-- RetailPlansController -->
<g id="node10" class="node"><title>RetailPlansController</title>
<path fill="none" stroke="black" d="M-253.659,37C-253.659,37 -140.341,37 -140.341,37 -134.341,37 -128.341,31 -128.341,25 -128.341,25 -128.341,-153 -128.341,-153 -128.341,-159 -134.341,-165 -140.341,-165 -140.341,-165 -253.659,-165 -253.659,-165 -259.659,-165 -265.659,-159 -265.659,-153 -265.659,-153 -265.659,25 -265.659,25 -265.659,31 -259.659,37 -253.659,37"/>
<text text-anchor="middle" x="-197" y="-149.8" font-family="Times,serif" font-size="14.00">RetailPlansController</text>
<polyline fill="none" stroke="black" points="-265.659,-143 -128.341,-143 "/>
<text text-anchor="start" x="-257.659" y="-127.8" font-family="Times,serif" font-size="14.00">create</text>
<text text-anchor="start" x="-257.659" y="-113.8" font-family="Times,serif" font-size="14.00">destroy</text>
<text text-anchor="start" x="-257.659" y="-99.8" font-family="Times,serif" font-size="14.00">edit</text>
<text text-anchor="start" x="-257.659" y="-85.8" font-family="Times,serif" font-size="14.00">index</text>
<text text-anchor="start" x="-257.659" y="-71.8" font-family="Times,serif" font-size="14.00">new</text>
<text text-anchor="start" x="-257.659" y="-57.8" font-family="Times,serif" font-size="14.00">retail_plan_params</text>
<text text-anchor="start" x="-257.659" y="-43.8" font-family="Times,serif" font-size="14.00">set_retail_plan</text>
<text text-anchor="start" x="-257.659" y="-29.8" font-family="Times,serif" font-size="14.00">show</text>
<text text-anchor="start" x="-257.659" y="-15.8" font-family="Times,serif" font-size="14.00">update</text>
<polyline fill="none" stroke="black" points="-265.659,-9 -128.341,-9 "/>
<polyline fill="none" stroke="black" points="-265.659,15 -128.341,15 "/>
<text text-anchor="start" x="-257.659" y="30.2" font-family="Times,serif" font-size="14.00">_layout</text>
</g>
<!-- SitesController -->
<g id="node11" class="node"><title>SitesController</title>
<path fill="none" stroke="black" d="M125.614,-248C125.614,-248 202.386,-248 202.386,-248 208.386,-248 214.386,-254 214.386,-260 214.386,-260 214.386,-452 214.386,-452 214.386,-458 208.386,-464 202.386,-464 202.386,-464 125.614,-464 125.614,-464 119.614,-464 113.614,-458 113.614,-452 113.614,-452 113.614,-260 113.614,-260 113.614,-254 119.614,-248 125.614,-248"/>
<text text-anchor="middle" x="164" y="-448.8" font-family="Times,serif" font-size="14.00">SitesController</text>
<polyline fill="none" stroke="black" points="113.614,-442 214.386,-442 "/>
<text text-anchor="start" x="121.614" y="-426.8" font-family="Times,serif" font-size="14.00">create</text>
<text text-anchor="start" x="121.614" y="-412.8" font-family="Times,serif" font-size="14.00">destroy</text>
<text text-anchor="start" x="121.614" y="-398.8" font-family="Times,serif" font-size="14.00">edit</text>
<text text-anchor="start" x="121.614" y="-384.8" font-family="Times,serif" font-size="14.00">index</text>
<text text-anchor="start" x="121.614" y="-370.8" font-family="Times,serif" font-size="14.00">new</text>
<text text-anchor="start" x="121.614" y="-356.8" font-family="Times,serif" font-size="14.00">show</text>
<text text-anchor="start" x="121.614" y="-342.8" font-family="Times,serif" font-size="14.00">update</text>
<polyline fill="none" stroke="black" points="113.614,-336 214.386,-336 "/>
<polyline fill="none" stroke="black" points="113.614,-312 214.386,-312 "/>
<text text-anchor="start" x="121.614" y="-296.8" font-family="Times,serif" font-size="14.00">_layout</text>
<text text-anchor="start" x="121.614" y="-282.8" font-family="Times,serif" font-size="14.00">set_site</text>
<text text-anchor="start" x="121.614" y="-268.8" font-family="Times,serif" font-size="14.00">set_user</text>
<text text-anchor="start" x="121.614" y="-254.8" font-family="Times,serif" font-size="14.00">site_params</text>
</g>
<!-- Users::ConfirmationsController -->
<g id="node12" class="node"><title>Users::ConfirmationsController</title>
<path fill="none" stroke="black" d="M297.338,-39C297.338,-39 466.662,-39 466.662,-39 472.662,-39 478.662,-45 478.662,-51 478.662,-51 478.662,-119 478.662,-119 478.662,-125 472.662,-131 466.662,-131 466.662,-131 297.338,-131 297.338,-131 291.338,-131 285.338,-125 285.338,-119 285.338,-119 285.338,-51 285.338,-51 285.338,-45 291.338,-39 297.338,-39"/>
<text text-anchor="middle" x="382" y="-115.8" font-family="Times,serif" font-size="14.00">Users::ConfirmationsController</text>
<polyline fill="none" stroke="black" points="285.338,-109 478.662,-109 "/>
<polyline fill="none" stroke="black" points="285.338,-85 478.662,-85 "/>
<polyline fill="none" stroke="black" points="285.338,-61 478.662,-61 "/>
<text text-anchor="start" x="293.338" y="-45.8" font-family="Times,serif" font-size="14.00">_layout</text>
</g>
<!-- Users::OmniauthCallbacksController -->
<g id="node13" class="node"><title>Users::OmniauthCallbacksController</title>
<path fill="none" stroke="black" d="M296.796,94C296.796,94 497.204,94 497.204,94 503.204,94 509.204,88 509.204,82 509.204,82 509.204,14 509.204,14 509.204,8 503.204,2 497.204,2 497.204,2 296.796,2 296.796,2 290.796,2 284.796,8 284.796,14 284.796,14 284.796,82 284.796,82 284.796,88 290.796,94 296.796,94"/>
<text text-anchor="middle" x="397" y="17.2" font-family="Times,serif" font-size="14.00">Users::OmniauthCallbacksController</text>
<polyline fill="none" stroke="black" points="284.796,24 509.204,24 "/>
<polyline fill="none" stroke="black" points="284.796,48 509.204,48 "/>
<polyline fill="none" stroke="black" points="284.796,72 509.204,72 "/>
<text text-anchor="start" x="292.796" y="87.2" font-family="Times,serif" font-size="14.00">_layout</text>
</g>
<!-- Users::PasswordsController -->
<g id="node14" class="node"><title>Users::PasswordsController</title>
<path fill="none" stroke="black" d="M-406.162,417C-406.162,417 -257.838,417 -257.838,417 -251.838,417 -245.838,411 -245.838,405 -245.838,405 -245.838,337 -245.838,337 -245.838,331 -251.838,325 -257.838,325 -257.838,325 -406.162,325 -406.162,325 -412.162,325 -418.162,331 -418.162,337 -418.162,337 -418.162,405 -418.162,405 -418.162,411 -412.162,417 -406.162,417"/>
<text text-anchor="middle" x="-332" y="340.2" font-family="Times,serif" font-size="14.00">Users::PasswordsController</text>
<polyline fill="none" stroke="black" points="-418.162,347 -245.838,347 "/>
<polyline fill="none" stroke="black" points="-418.162,371 -245.838,371 "/>
<polyline fill="none" stroke="black" points="-418.162,395 -245.838,395 "/>
<text text-anchor="start" x="-410.162" y="410.2" font-family="Times,serif" font-size="14.00">_layout</text>
</g>
<!-- Users::RegistrationsController -->
<g id="node15" class="node"><title>Users::RegistrationsController</title>
<path fill="none" stroke="black" d="M107.424,227C107.424,227 294.576,227 294.576,227 300.576,227 306.576,221 306.576,215 306.576,215 306.576,135 306.576,135 306.576,129 300.576,123 294.576,123 294.576,123 107.424,123 107.424,123 101.424,123 95.4238,129 95.4238,135 95.4238,135 95.4238,215 95.4238,215 95.4238,221 101.424,227 107.424,227"/>
<text text-anchor="middle" x="201" y="138.2" font-family="Times,serif" font-size="14.00">Users::RegistrationsController</text>
<polyline fill="none" stroke="black" points="95.4238,145 306.576,145 "/>
<polyline fill="none" stroke="black" points="95.4238,169 306.576,169 "/>
<text text-anchor="start" x="103.424" y="184.2" font-family="Times,serif" font-size="14.00">configure_account_update_params</text>
<text text-anchor="start" x="103.424" y="198.2" font-family="Times,serif" font-size="14.00">configure_sign_up_params</text>
<polyline fill="none" stroke="black" points="95.4238,205 306.576,205 "/>
<text text-anchor="start" x="103.424" y="220.2" font-family="Times,serif" font-size="14.00">_layout</text>
</g>
<!-- Users::SessionsController -->
<g id="node16" class="node"><title>Users::SessionsController</title>
<path fill="none" stroke="black" d="M-196.721,417C-196.721,417 -59.2793,417 -59.2793,417 -53.2793,417 -47.2793,411 -47.2793,405 -47.2793,405 -47.2793,337 -47.2793,337 -47.2793,331 -53.2793,325 -59.2793,325 -59.2793,325 -196.721,325 -196.721,325 -202.721,325 -208.721,331 -208.721,337 -208.721,337 -208.721,405 -208.721,405 -208.721,411 -202.721,417 -196.721,417"/>
<text text-anchor="middle" x="-128" y="340.2" font-family="Times,serif" font-size="14.00">Users::SessionsController</text>
<polyline fill="none" stroke="black" points="-208.721,347 -47.2793,347 "/>
<polyline fill="none" stroke="black" points="-208.721,371 -47.2793,371 "/>
<polyline fill="none" stroke="black" points="-208.721,395 -47.2793,395 "/>
<text text-anchor="start" x="-200.721" y="410.2" font-family="Times,serif" font-size="14.00">_layout</text>
</g>
<!-- Users::UnlocksController -->
<g id="node17" class="node"><title>Users::UnlocksController</title>
<path fill="none" stroke="black" d="M449.065,-172C449.065,-172 584.935,-172 584.935,-172 590.935,-172 596.935,-178 596.935,-184 596.935,-184 596.935,-252 596.935,-252 596.935,-258 590.935,-264 584.935,-264 584.935,-264 449.065,-264 449.065,-264 443.065,-264 437.065,-258 437.065,-252 437.065,-252 437.065,-184 437.065,-184 437.065,-178 443.065,-172 449.065,-172"/>
<text text-anchor="middle" x="517" y="-248.8" font-family="Times,serif" font-size="14.00">Users::UnlocksController</text>
<polyline fill="none" stroke="black" points="437.065,-242 596.935,-242 "/>
<polyline fill="none" stroke="black" points="437.065,-218 596.935,-218 "/>
<polyline fill="none" stroke="black" points="437.065,-194 596.935,-194 "/>
<text text-anchor="start" x="445.065" y="-178.8" font-family="Times,serif" font-size="14.00">_layout</text>
</g>
<!-- UsersController -->
<g id="node18" class="node"><title>UsersController</title>
<path fill="none" stroke="black" d="M-386.714,-1C-386.714,-1 -305.286,-1 -305.286,-1 -299.286,-1 -293.286,-7 -293.286,-13 -293.286,-13 -293.286,-121 -293.286,-121 -293.286,-127 -299.286,-133 -305.286,-133 -305.286,-133 -386.714,-133 -386.714,-133 -392.714,-133 -398.714,-127 -398.714,-121 -398.714,-121 -398.714,-13 -398.714,-13 -398.714,-7 -392.714,-1 -386.714,-1"/>
<text text-anchor="middle" x="-346" y="-117.8" font-family="Times,serif" font-size="14.00">UsersController</text>
<polyline fill="none" stroke="black" points="-398.714,-111 -293.286,-111 "/>
<text text-anchor="start" x="-390.714" y="-95.8" font-family="Times,serif" font-size="14.00">import_nem12</text>
<text text-anchor="start" x="-390.714" y="-81.8" font-family="Times,serif" font-size="14.00">show</text>
<text text-anchor="start" x="-390.714" y="-67.8" font-family="Times,serif" font-size="14.00">upload_nem12</text>
<polyline fill="none" stroke="black" points="-398.714,-61 -293.286,-61 "/>
<polyline fill="none" stroke="black" points="-398.714,-37 -293.286,-37 "/>
<text text-anchor="start" x="-390.714" y="-21.8" font-family="Times,serif" font-size="14.00">_layout</text>
<text text-anchor="start" x="-390.714" y="-7.8" font-family="Times,serif" font-size="14.00">set_user</text>
</g>
</g>
</svg>
