<?xml version="1.0" encoding="UTF-8" standalone="no"?>
<!DOCTYPE svg PUBLIC "-//W3C//DTD SVG 1.1//EN"
 "http://www.w3.org/Graphics/SVG/1.1/DTD/svg11.dtd">
<!-- Generated by graphviz version 2.38.0 (20140413.2041)
 -->
<!-- Title: models_diagram Pages: 1 -->
<svg width="2031pt" height="513pt"
 viewBox="0.00 0.00 2030.82 513.00" xmlns="http://www.w3.org/2000/svg" xmlns:xlink="http://www.w3.org/1999/xlink">
<g id="graph0" class="graph" transform="scale(1 1) rotate(0) translate(4 509)">
<title>models_diagram</title>
<polygon fill="none" stroke="none" points="-4,4 -4,-509 2026.82,-509 2026.82,4 -4,4"/>
<!-- _diagram_info -->
<g id="node1" class="node"><title>_diagram_info</title>
<text text-anchor="start" x="1339.23" y="-490.6" font-family="Times,serif" font-size="13.00">Models diagram</text>
<text text-anchor="start" x="1339.23" y="-477.6" font-family="Times,serif" font-size="13.00">Date: Oct 22 2015 &#45; 14:50</text>
<text text-anchor="start" x="1339.23" y="-464.6" font-family="Times,serif" font-size="13.00">Migration version: 20151007100914</text>
<text text-anchor="start" x="1339.23" y="-451.6" font-family="Times,serif" font-size="13.00">Generated by RailRoady 1.3.1</text>
<text text-anchor="start" x="1339.23" y="-438.6" font-family="Times,serif" font-size="13.00">http://railroady.prestonlee.com</text>
</g>
<!-- BillingSite -->
<g id="node2" class="node"><title>BillingSite</title>
<ellipse fill="none" stroke="black" cx="1496.92" cy="-306" rx="48.3686" ry="18"/>
<text text-anchor="middle" x="1496.92" y="-301.8" font-family="Times,serif" font-size="14.00">BillingSite</text>
</g>
<!-- Invoice -->
<g id="node12" class="node"><title>Invoice</title>
<ellipse fill="none" stroke="black" cx="1274.92" cy="-90" rx="36.7489" ry="18"/>
<text text-anchor="middle" x="1274.92" y="-85.8" font-family="Times,serif" font-size="14.00">Invoice</text>
</g>
<!-- BillingSite&#45;&gt;Invoice -->
<g id="edge3" class="edge"><title>BillingSite&#45;&gt;Invoice</title>
<path fill="none" stroke="#9f8f6e" d="M1472.87,-281.813C1429.94,-240.429 1340.65,-154.362 1298.25,-113.488"/>
<polygon fill="#9f8f6e" stroke="#9f8f6e" points="1473.03,-281.975 1477.11,-292.155 1476.63,-285.445 1480.23,-288.915 1480.23,-288.915 1480.23,-288.915 1476.63,-285.445 1483.36,-285.675 1473.03,-281.975 1473.03,-281.975"/>
<polygon fill="#9f8f6e" stroke="#9f8f6e" points="1298.1,-113.343 1294.02,-103.163 1294.5,-109.873 1290.9,-106.402 1290.9,-106.402 1290.9,-106.402 1294.5,-109.873 1287.78,-109.642 1298.1,-113.343 1298.1,-113.343"/>
</g>
<!-- Meter -->
<g id="node14" class="node"><title>Meter</title>
<ellipse fill="none" stroke="black" cx="1610.92" cy="-234" rx="31.4462" ry="18"/>
<text text-anchor="middle" x="1610.92" y="-229.8" font-family="Times,serif" font-size="14.00">Meter</text>
</g>
<!-- BillingSite&#45;&gt;Meter -->
<g id="edge1" class="edge"><title>BillingSite&#45;&gt;Meter</title>
<path fill="none" stroke="#cef78d" d="M1527.83,-286.017C1544.51,-275.777 1564.99,-263.204 1581.44,-253.102"/>
<ellipse fill="none" stroke="#cef78d" cx="1524.23" cy="-288.233" rx="4.00002" ry="4.00002"/>
<polygon fill="#cef78d" stroke="#cef78d" points="1581.59,-253.008 1592.47,-251.61 1585.85,-250.391 1590.12,-247.775 1590.12,-247.775 1590.12,-247.775 1585.85,-250.391 1587.76,-243.94 1581.59,-253.008 1581.59,-253.008"/>
</g>
<!-- RetailPlan -->
<g id="node19" class="node"><title>RetailPlan</title>
<ellipse fill="none" stroke="black" cx="606.92" cy="-234" rx="46.8977" ry="18"/>
<text text-anchor="middle" x="606.92" y="-229.8" font-family="Times,serif" font-size="14.00">RetailPlan</text>
</g>
<!-- BillingSite&#45;&gt;RetailPlan -->
<g id="edge2" class="edge"><title>BillingSite&#45;&gt;RetailPlan</title>
<path fill="none" stroke="#170ac6" d="M1441.56,-300.646C1282.02,-288.098 822.474,-251.954 662.567,-239.377"/>
<ellipse fill="none" stroke="#170ac6" cx="1446.02" cy="-300.997" rx="4" ry="4"/>
<polygon fill="#170ac6" stroke="#170ac6" points="662.443,-239.367 652.827,-234.097 657.459,-238.975 652.474,-238.583 652.474,-238.583 652.474,-238.583 657.459,-238.975 652.121,-243.069 662.443,-239.367 662.443,-239.367"/>
</g>
<!-- CapacityCharge -->
<g id="node3" class="node"><title>CapacityCharge</title>
<ellipse fill="none" stroke="black" cx="66.92" cy="-162" rx="66.8402" ry="18"/>
<text text-anchor="middle" x="66.92" y="-157.8" font-family="Times,serif" font-size="14.00">CapacityCharge</text>
</g>
<!-- ChargeFactory -->
<g id="node5" class="node"><title>ChargeFactory</title>
<ellipse fill="none" stroke="black" cx="583.92" cy="-90" rx="62.5053" ry="18"/>
<text text-anchor="middle" x="583.92" y="-85.8" font-family="Times,serif" font-size="14.00">ChargeFactory</text>
</g>
<!-- CapacityCharge&#45;&gt;ChargeFactory -->
<g id="edge5" class="edge"><title>CapacityCharge&#45;&gt;ChargeFactory</title>
<path fill="none" stroke="#a28d8a" d="M122.877,-147.816C129.611,-146.427 136.407,-145.117 142.92,-144 274.716,-121.399 430.306,-105.098 516.984,-96.9329"/>
<ellipse fill="none" stroke="#a28d8a" cx="118.934" cy="-148.649" rx="4.00001" ry="4.00001"/>
<ellipse fill="#a28d8a" stroke="#a28d8a" cx="521.171" cy="-96.541" rx="4" ry="4"/>
</g>
<!-- ConcreteCharge -->
<g id="node6" class="node"><title>ConcreteCharge</title>
<ellipse fill="none" stroke="black" cx="774.92" cy="-18" rx="67.3161" ry="18"/>
<text text-anchor="middle" x="774.92" y="-13.8" font-family="Times,serif" font-size="14.00">ConcreteCharge</text>
</g>
<!-- CapacityCharge&#45;&gt;ConcreteCharge -->
<g id="edge4" class="edge"><title>CapacityCharge&#45;&gt;ConcreteCharge</title>
<path fill="none" stroke="#51091f" d="M111.346,-143.922C165.645,-123.718 260.71,-90.4984 344.92,-72 467.758,-45.0163 613.569,-30.6715 699.942,-23.9667"/>
<ellipse fill="none" stroke="#51091f" cx="107.383" cy="-145.404" rx="4.00001" ry="4.00001"/>
<polygon fill="#51091f" stroke="#51091f" points="700.204,-23.9468 710.518,-27.6736 705.19,-23.5667 710.175,-23.1866 710.175,-23.1866 710.175,-23.1866 705.19,-23.5667 709.833,-18.6996 700.204,-23.9468 700.204,-23.9468"/>
</g>
<!-- CertificateCharge -->
<g id="node4" class="node"><title>CertificateCharge</title>
<ellipse fill="none" stroke="black" cx="223.92" cy="-162" rx="72.1444" ry="18"/>
<text text-anchor="middle" x="223.92" y="-157.8" font-family="Times,serif" font-size="14.00">CertificateCharge</text>
</g>
<!-- CertificateCharge&#45;&gt;ChargeFactory -->
<g id="edge7" class="edge"><title>CertificateCharge&#45;&gt;ChargeFactory</title>
<path fill="none" stroke="#c93fb1" d="M285.367,-148.149C292.297,-146.733 299.258,-145.325 305.92,-144 381.36,-128.99 468.495,-112.518 524.809,-101.985"/>
<ellipse fill="none" stroke="#c93fb1" cx="281.186" cy="-149.007" rx="4.00001" ry="4.00001"/>
<ellipse fill="#c93fb1" stroke="#c93fb1" cx="528.958" cy="-101.21" rx="4.00001" ry="4.00001"/>
</g>
<!-- CertificateCharge&#45;&gt;ConcreteCharge -->
<g id="edge6" class="edge"><title>CertificateCharge&#45;&gt;ConcreteCharge</title>
<path fill="none" stroke="#eb4317" d="M263.324,-142.396C307.559,-122.23 381.925,-90.4634 448.92,-72 534.626,-48.38 636.092,-33.9303 702.793,-26.2067"/>
<ellipse fill="none" stroke="#eb4317" cx="259.593" cy="-144.107" rx="4.00002" ry="4.00002"/>
<polygon fill="#eb4317" stroke="#eb4317" points="702.848,-26.2006 713.293,-29.5412 707.816,-25.6353 712.784,-25.0701 712.784,-25.0701 712.784,-25.0701 707.816,-25.6353 712.275,-20.5989 702.848,-26.2006 702.848,-26.2006"/>
</g>
<!-- ChargeFactory&#45;&gt;ConcreteCharge -->
<g id="edge8" class="edge"><title>ChargeFactory&#45;&gt;ConcreteCharge</title>
<path fill="none" stroke="#db5e18" d="M628.862,-72.5293C658.461,-61.6813 697.166,-47.4963 727.295,-36.4542"/>
<ellipse fill="none" stroke="#db5e18" cx="624.956" cy="-73.9606" rx="4.00001" ry="4.00001"/>
<polygon fill="#db5e18" stroke="#db5e18" points="727.364,-36.429 738.302,-37.213 732.059,-34.7084 736.753,-32.9878 736.753,-32.9878 736.753,-32.9878 732.059,-34.7084 735.205,-28.7626 727.364,-36.429 727.364,-36.429"/>
</g>
<!-- DailyUsageCharge -->
<g id="node7" class="node"><title>DailyUsageCharge</title>
<ellipse fill="none" stroke="black" cx="391.92" cy="-162" rx="77.4727" ry="18"/>
<text text-anchor="middle" x="391.92" y="-157.8" font-family="Times,serif" font-size="14.00">DailyUsageCharge</text>
</g>
<!-- DailyUsageCharge&#45;&gt;ChargeFactory -->
<g id="edge10" class="edge"><title>DailyUsageCharge&#45;&gt;ChargeFactory</title>
<path fill="none" stroke="#2c8f3d" d="M439.461,-143.667C469.887,-132.574 509.117,-118.272 539.015,-107.372"/>
<ellipse fill="none" stroke="#2c8f3d" cx="435.461" cy="-145.126" rx="4.00001" ry="4.00001"/>
<ellipse fill="#2c8f3d" stroke="#2c8f3d" cx="543.036" cy="-105.906" rx="4.00001" ry="4.00001"/>
</g>
<!-- DailyUsageCharge&#45;&gt;ConcreteCharge -->
<g id="edge9" class="edge"><title>DailyUsageCharge&#45;&gt;ConcreteCharge</title>
<path fill="none" stroke="#e54e59" d="M415.089,-138.875C437.906,-118.357 474.66,-88.5723 511.92,-72 572.392,-45.1037 646.758,-31.7367 700.966,-25.1664"/>
<ellipse fill="none" stroke="#e54e59" cx="411.99" cy="-141.702" rx="4.00002" ry="4.00002"/>
<polygon fill="#e54e59" stroke="#e54e59" points="701.253,-25.1331 711.705,-28.4488 706.219,-24.556 711.186,-23.9789 711.186,-23.9789 711.186,-23.9789 706.219,-24.556 710.667,-19.509 701.253,-25.1331 701.253,-25.1331"/>
</g>
<!-- FtpServer -->
<g id="node8" class="node"><title>FtpServer</title>
<ellipse fill="none" stroke="black" cx="1683.92" cy="-378" rx="44.9682" ry="18"/>
<text text-anchor="middle" x="1683.92" y="-373.8" font-family="Times,serif" font-size="14.00">FtpServer</text>
</g>
<!-- GeneratedInvoice -->
<g id="node9" class="node"><title>GeneratedInvoice</title>
<ellipse fill="none" stroke="black" cx="1072.92" cy="-162" rx="72.9135" ry="18"/>
<text text-anchor="middle" x="1072.92" y="-157.8" font-family="Times,serif" font-size="14.00">GeneratedInvoice</text>
</g>
<!-- GeneratedInvoice&#45;&gt;ConcreteCharge -->
<g id="edge11" class="edge"><title>GeneratedInvoice&#45;&gt;ConcreteCharge</title>
<path fill="none" stroke="#4b8305" d="M1033.66,-142.294C977.092,-115.337 873.146,-65.8056 815.723,-38.4432"/>
<ellipse fill="none" stroke="#4b8305" cx="1037.42" cy="-144.083" rx="4.00002" ry="4.00002"/>
<polygon fill="#4b8305" stroke="#4b8305" points="815.609,-38.389 808.518,-30.0248 811.096,-36.2381 806.582,-34.0872 806.582,-34.0872 806.582,-34.0872 811.096,-36.2381 804.646,-38.1496 815.609,-38.389 815.609,-38.389"/>
</g>
<!-- GeneratedInvoice&#45;&gt;Invoice -->
<g id="edge12" class="edge"><title>GeneratedInvoice&#45;&gt;Invoice</title>
<path fill="none" stroke="#995982" d="M1121.35,-144.216C1157.24,-131.782 1205.39,-115.094 1238.15,-103.743"/>
<ellipse fill="none" stroke="#995982" cx="1117.09" cy="-145.693" rx="4.00001" ry="4.00001"/>
<ellipse fill="#995982" stroke="#995982" cx="1241.93" cy="-102.431" rx="4.00001" ry="4.00001"/>
</g>
<!-- GlobalUsageCharge -->
<g id="node10" class="node"><title>GlobalUsageCharge</title>
<ellipse fill="none" stroke="black" cx="606.92" cy="-162" rx="81.8157" ry="18"/>
<text text-anchor="middle" x="606.92" y="-157.8" font-family="Times,serif" font-size="14.00">GlobalUsageCharge</text>
</g>
<!-- GlobalUsageCharge&#45;&gt;ChargeFactory -->
<g id="edge14" class="edge"><title>GlobalUsageCharge&#45;&gt;ChargeFactory</title>
<path fill="none" stroke="#0f45c8" d="M598.679,-135.92C596.548,-129.433 594.254,-122.451 592.125,-115.97"/>
<ellipse fill="none" stroke="#0f45c8" cx="599.986" cy="-139.896" rx="4.00001" ry="4.00001"/>
<ellipse fill="#0f45c8" stroke="#0f45c8" cx="590.789" cy="-111.904" rx="4.00001" ry="4.00001"/>
</g>
<!-- GlobalUsageCharge&#45;&gt;ConcreteCharge -->
<g id="edge13" class="edge"><title>GlobalUsageCharge&#45;&gt;ConcreteCharge</title>
<path fill="none" stroke="#f934fb" d="M632.948,-139C664.023,-112.734 715.761,-69.0034 747.456,-42.2133"/>
<ellipse fill="none" stroke="#f934fb" cx="629.576" cy="-141.851" rx="4.00002" ry="4.00002"/>
<polygon fill="#f934fb" stroke="#f934fb" points="747.807,-41.917 758.349,-38.8984 751.626,-38.6893 755.444,-35.4616 755.444,-35.4616 755.444,-35.4616 751.626,-38.6893 752.539,-32.0248 747.807,-41.917 747.807,-41.917"/>
</g>
<!-- ImportedInvoice -->
<g id="node11" class="node"><title>ImportedInvoice</title>
<ellipse fill="none" stroke="black" cx="1232.92" cy="-162" rx="69.0805" ry="18"/>
<text text-anchor="middle" x="1232.92" y="-157.8" font-family="Times,serif" font-size="14.00">ImportedInvoice</text>
</g>
<!-- ImportedInvoice&#45;&gt;ConcreteCharge -->
<g id="edge15" class="edge"><title>ImportedInvoice&#45;&gt;ConcreteCharge</title>
<path fill="none" stroke="#d5e97e" d="M1182.56,-145.385C1095,-118.237 915.585,-62.6123 826.903,-35.1171"/>
<ellipse fill="none" stroke="#d5e97e" cx="1186.42" cy="-146.584" rx="4.00001" ry="4.00001"/>
<polygon fill="#d5e97e" stroke="#d5e97e" points="826.874,-35.1079 818.655,-27.8483 822.098,-33.6272 817.322,-32.1465 817.322,-32.1465 817.322,-32.1465 822.098,-33.6272 815.989,-36.4446 826.874,-35.1079 826.874,-35.1079"/>
</g>
<!-- ImportedInvoice&#45;&gt;Invoice -->
<g id="edge16" class="edge"><title>ImportedInvoice&#45;&gt;Invoice</title>
<path fill="none" stroke="#4fa4a0" d="M1247.32,-136.998C1251.65,-129.786 1256.39,-121.881 1260.71,-114.69"/>
<ellipse fill="none" stroke="#4fa4a0" cx="1245.15" cy="-140.625" rx="4.00002" ry="4.00002"/>
<ellipse fill="#4fa4a0" stroke="#4fa4a0" cx="1262.79" cy="-111.219" rx="4.00002" ry="4.00002"/>
</g>
<!-- Invoice&#45;&gt;ConcreteCharge -->
<g id="edge17" class="edge"><title>Invoice&#45;&gt;ConcreteCharge</title>
<path fill="none" stroke="#c4592b" d="M1234.48,-79.5917C1222.14,-76.9128 1208.51,-74.1435 1195.92,-72 1073.97,-51.2427 930.861,-34.9125 846.824,-26.1328"/>
<ellipse fill="none" stroke="#c4592b" cx="1238.47" cy="-80.4706" rx="4.00001" ry="4.00001"/>
<polygon fill="#c4592b" stroke="#c4592b" points="846.821,-26.1325 837.339,-20.6238 841.847,-25.6161 836.874,-25.0997 836.874,-25.0997 836.874,-25.0997 841.847,-25.6161 836.409,-29.5757 846.821,-26.1325 846.821,-26.1325"/>
</g>
<!-- LinearRegressionPredictor -->
<g id="node13" class="node"><title>LinearRegressionPredictor</title>
<ellipse fill="none" stroke="black" cx="1917.92" cy="-234" rx="104.796" ry="18"/>
<text text-anchor="middle" x="1917.92" y="-229.8" font-family="Times,serif" font-size="14.00">LinearRegressionPredictor</text>
</g>
<!-- MeterPredictor -->
<g id="node16" class="node"><title>MeterPredictor</title>
<ellipse fill="none" stroke="black" cx="1917.92" cy="-162" rx="63.7769" ry="18"/>
<text text-anchor="middle" x="1917.92" y="-157.8" font-family="Times,serif" font-size="14.00">MeterPredictor</text>
</g>
<!-- LinearRegressionPredictor&#45;&gt;MeterPredictor -->
<g id="edge18" class="edge"><title>LinearRegressionPredictor&#45;&gt;MeterPredictor</title>
<path fill="none" stroke="#6b91ee" d="M1917.92,-207.64C1917.92,-201.348 1917.92,-194.605 1917.92,-188.316"/>
<ellipse fill="none" stroke="#6b91ee" cx="1917.92" cy="-211.697" rx="4" ry="4"/>
<ellipse fill="#6b91ee" stroke="#6b91ee" cx="1917.92" cy="-184.104" rx="4" ry="4"/>
</g>
<!-- MeterAggregation -->
<g id="node15" class="node"><title>MeterAggregation</title>
<ellipse fill="none" stroke="black" cx="1760.92" cy="-162" rx="75.3535" ry="18"/>
<text text-anchor="middle" x="1760.92" y="-157.8" font-family="Times,serif" font-size="14.00">MeterAggregation</text>
</g>
<!-- Meter&#45;&gt;MeterAggregation -->
<g id="edge20" class="edge"><title>Meter&#45;&gt;MeterAggregation</title>
<path fill="none" stroke="#80959e" d="M1641.82,-218.578C1664.17,-208.152 1694.6,-193.949 1719.11,-182.51"/>
<ellipse fill="none" stroke="#80959e" cx="1637.98" cy="-220.371" rx="4.00002" ry="4.00002"/>
<polygon fill="#80959e" stroke="#80959e" points="1719.13,-182.504 1730.09,-182.353 1723.66,-180.39 1728.19,-178.275 1728.19,-178.275 1728.19,-178.275 1723.66,-180.39 1726.28,-174.197 1719.13,-182.504 1719.13,-182.504"/>
</g>
<!-- Meter&#45;&gt;MeterPredictor -->
<g id="edge21" class="edge"><title>Meter&#45;&gt;MeterPredictor</title>
<path fill="none" stroke="#6db4df" d="M1647.66,-224.75C1693.76,-214.384 1775.22,-196.009 1844.92,-180 1849.94,-178.846 1855.16,-177.642 1860.39,-176.432"/>
<ellipse fill="none" stroke="#6db4df" cx="1643.65" cy="-225.651" rx="4.00001" ry="4.00001"/>
<polygon fill="#6db4df" stroke="#6db4df" points="1860.67,-176.366 1871.43,-178.49 1865.54,-175.236 1870.42,-174.107 1870.42,-174.107 1870.42,-174.107 1865.54,-175.236 1869.4,-169.723 1860.67,-176.366 1860.67,-176.366"/>
</g>
<!-- MeterRecord -->
<g id="node24" class="node"><title>MeterRecord</title>
<ellipse fill="none" stroke="black" cx="1610.92" cy="-162" rx="56.5201" ry="18"/>
<text text-anchor="middle" x="1610.92" y="-157.8" font-family="Times,serif" font-size="14.00">MeterRecord</text>
</g>
<!-- Meter&#45;&gt;MeterRecord -->
<g id="edge19" class="edge"><title>Meter&#45;&gt;MeterRecord</title>
<path fill="none" stroke="#3db500" d="M1610.92,-207.64C1610.92,-202.063 1610.92,-196.132 1610.92,-190.476"/>
<ellipse fill="none" stroke="#3db500" cx="1610.92" cy="-211.697" rx="4" ry="4"/>
<polygon fill="#3db500" stroke="#3db500" points="1610.92,-190.104 1615.42,-180.104 1610.92,-185.104 1610.92,-180.104 1610.92,-180.104 1610.92,-180.104 1610.92,-185.104 1606.42,-180.104 1610.92,-190.104 1610.92,-190.104"/>
</g>
<!-- MeteringCharge -->
<g id="node17" class="node"><title>MeteringCharge</title>
<ellipse fill="none" stroke="black" cx="774.92" cy="-162" rx="67.8093" ry="18"/>
<text text-anchor="middle" x="774.92" y="-157.8" font-family="Times,serif" font-size="14.00">MeteringCharge</text>
</g>
<!-- MeteringCharge&#45;&gt;ChargeFactory -->
<g id="edge23" class="edge"><title>MeteringCharge&#45;&gt;ChargeFactory</title>
<path fill="none" stroke="#e083f3" d="M729.001,-144.171C698.657,-133.05 659.071,-118.542 628.916,-107.491"/>
<ellipse fill="none" stroke="#e083f3" cx="732.972" cy="-145.626" rx="4.00001" ry="4.00001"/>
<ellipse fill="#e083f3" stroke="#e083f3" cx="624.827" cy="-105.992" rx="4.00001" ry="4.00001"/>
</g>
<!-- MeteringCharge&#45;&gt;ConcreteCharge -->
<g id="edge22" class="edge"><title>MeteringCharge&#45;&gt;ConcreteCharge</title>
<path fill="none" stroke="#aaefb8" d="M774.92,-135.558C774.92,-110.444 774.92,-72.164 774.92,-46.3932"/>
<ellipse fill="none" stroke="#aaefb8" cx="774.92" cy="-139.871" rx="4" ry="4"/>
<polygon fill="#aaefb8" stroke="#aaefb8" points="774.92,-46.1893 779.42,-36.1892 774.92,-41.1893 774.92,-36.1893 774.92,-36.1893 774.92,-36.1893 774.92,-41.1893 770.42,-36.1893 774.92,-46.1893 774.92,-46.1893"/>
</g>
<!-- PredictedInvoice -->
<g id="node18" class="node"><title>PredictedInvoice</title>
<ellipse fill="none" stroke="black" cx="1465.92" cy="-162" rx="70.0409" ry="18"/>
<text text-anchor="middle" x="1465.92" y="-157.8" font-family="Times,serif" font-size="14.00">PredictedInvoice</text>
</g>
<!-- PredictedInvoice&#45;&gt;ConcreteCharge -->
<g id="edge24" class="edge"><title>PredictedInvoice&#45;&gt;ConcreteCharge</title>
<path fill="none" stroke="#a076a6" d="M1439.16,-139.341C1411.4,-118.195 1365.84,-87.0674 1320.92,-72 1235.86,-43.4703 980.29,-28.2279 851.241,-22.1672"/>
<ellipse fill="none" stroke="#a076a6" cx="1442.65" cy="-142.042" rx="4.00002" ry="4.00002"/>
<polygon fill="#a076a6" stroke="#a076a6" points="851.03,-22.1576 841.249,-17.1998 846.035,-21.9263 841.041,-21.695 841.041,-21.695 841.041,-21.695 846.035,-21.9263 840.833,-26.1901 851.03,-22.1576 851.03,-22.1576"/>
</g>
<!-- PredictedInvoice&#45;&gt;Invoice -->
<g id="edge25" class="edge"><title>PredictedInvoice&#45;&gt;Invoice</title>
<path fill="none" stroke="#723b1d" d="M1419.75,-144.079C1386.37,-131.846 1341.91,-115.55 1311.09,-104.257"/>
<ellipse fill="none" stroke="#723b1d" cx="1423.51" cy="-145.458" rx="4.00001" ry="4.00001"/>
<ellipse fill="#723b1d" stroke="#723b1d" cx="1307.32" cy="-102.875" rx="4.00001" ry="4.00001"/>
</g>
<!-- RetailPlan&#45;&gt;CapacityCharge -->
<g id="edge32" class="edge"><title>RetailPlan&#45;&gt;CapacityCharge</title>
<path fill="none" stroke="#05db9a" d="M553.14,-228.727C466.417,-221.419 290.47,-204.857 142.92,-180 137.112,-179.022 131.08,-177.884 125.068,-176.669"/>
<ellipse fill="none" stroke="#05db9a" cx="557.264" cy="-229.072" rx="4" ry="4"/>
<polygon fill="#05db9a" stroke="#05db9a" points="124.802,-176.614 115.934,-170.163 119.908,-175.591 115.013,-174.568 115.013,-174.568 115.013,-174.568 119.908,-175.591 114.093,-178.973 124.802,-176.614 124.802,-176.614"/>
</g>
<!-- RetailPlan&#45;&gt;CertificateCharge -->
<g id="edge31" class="edge"><title>RetailPlan&#45;&gt;CertificateCharge</title>
<path fill="none" stroke="#1dcc34" d="M556.316,-224.568C496.435,-214.48 393.767,-196.836 305.92,-180 299.829,-178.833 293.491,-177.582 287.158,-176.309"/>
<ellipse fill="none" stroke="#1dcc34" cx="560.531" cy="-225.277" rx="4.00001" ry="4.00001"/>
<polygon fill="#1dcc34" stroke="#1dcc34" points="287.046,-176.286 278.141,-169.888 282.146,-175.292 277.246,-174.298 277.246,-174.298 277.246,-174.298 282.146,-175.292 276.351,-178.708 287.046,-176.286 287.046,-176.286"/>
</g>
<!-- RetailPlan&#45;&gt;ChargeFactory -->
<g id="edge26" class="edge"><title>RetailPlan&#45;&gt;ChargeFactory</title>
<path fill="none" stroke="#f478e7" d="M563.454,-218.794C545.405,-210.501 526.284,-198.03 515.92,-180 507.946,-166.128 508.898,-158.377 515.92,-144 522.369,-130.797 533.872,-119.926 545.604,-111.54"/>
<ellipse fill="none" stroke="#f478e7" cx="567.423" cy="-220.509" rx="4.00002" ry="4.00002"/>
<polygon fill="#f478e7" stroke="#f478e7" points="545.793,-111.414 556.611,-109.622 549.956,-108.645 554.119,-105.875 554.119,-105.875 554.119,-105.875 549.956,-108.645 551.626,-102.129 545.793,-111.414 545.793,-111.414"/>
</g>
<!-- RetailPlan&#45;&gt;DailyUsageCharge -->
<g id="edge27" class="edge"><title>RetailPlan&#45;&gt;DailyUsageCharge</title>
<path fill="none" stroke="#bcb991" d="M564.645,-219.236C530.219,-208.028 481.447,-192.148 444.504,-180.12"/>
<ellipse fill="none" stroke="#bcb991" cx="568.573" cy="-220.515" rx="4.00001" ry="4.00001"/>
<polygon fill="#bcb991" stroke="#bcb991" points="444.41,-180.09 436.295,-172.715 439.656,-178.542 434.902,-176.994 434.902,-176.994 434.902,-176.994 439.656,-178.542 433.509,-181.273 444.41,-180.09 444.41,-180.09"/>
</g>
<!-- RetailPlan&#45;&gt;GlobalUsageCharge -->
<g id="edge28" class="edge"><title>RetailPlan&#45;&gt;GlobalUsageCharge</title>
<path fill="none" stroke="#ed4c4e" d="M606.92,-207.64C606.92,-202.063 606.92,-196.132 606.92,-190.476"/>
<ellipse fill="none" stroke="#ed4c4e" cx="606.92" cy="-211.697" rx="4" ry="4"/>
<polygon fill="#ed4c4e" stroke="#ed4c4e" points="606.92,-190.104 611.42,-180.104 606.92,-185.104 606.92,-180.104 606.92,-180.104 606.92,-180.104 606.92,-185.104 602.42,-180.104 606.92,-190.104 606.92,-190.104"/>
</g>
<!-- RetailPlan&#45;&gt;Invoice -->
<g id="edge33" class="edge"><title>RetailPlan&#45;&gt;Invoice</title>
<path fill="none" stroke="#919795" d="M662.165,-233.053C820.451,-232.631 1267.11,-227.232 1310.92,-180 1327.98,-161.609 1312.54,-134.082 1296.91,-114.517"/>
<ellipse fill="none" stroke="#919795" cx="657.949" cy="-233.062" rx="4" ry="4"/>
<polygon fill="#919795" stroke="#919795" points="1296.75,-114.317 1293.74,-103.77 1293.52,-110.493 1290.3,-106.669 1290.3,-106.669 1290.3,-106.669 1293.52,-110.493 1286.86,-109.569 1296.75,-114.317 1296.75,-114.317"/>
</g>
<!-- RetailPlan&#45;&gt;MeteringCharge -->
<g id="edge29" class="edge"><title>RetailPlan&#45;&gt;MeteringCharge</title>
<path fill="none" stroke="#07eab2" d="M645.481,-216.933C670.833,-206.37 704.084,-192.515 730.537,-181.493"/>
<ellipse fill="none" stroke="#07eab2" cx="641.426" cy="-218.622" rx="4.00001" ry="4.00001"/>
<polygon fill="#07eab2" stroke="#07eab2" points="730.717,-181.418 741.679,-181.726 735.332,-179.495 739.948,-177.572 739.948,-177.572 739.948,-177.572 735.332,-179.495 738.217,-173.418 730.717,-181.418 730.717,-181.418"/>
</g>
<!-- SupplyCharge -->
<g id="node22" class="node"><title>SupplyCharge</title>
<ellipse fill="none" stroke="black" cx="920.92" cy="-162" rx="60.6017" ry="18"/>
<text text-anchor="middle" x="920.92" y="-157.8" font-family="Times,serif" font-size="14.00">SupplyCharge</text>
</g>
<!-- RetailPlan&#45;&gt;SupplyCharge -->
<g id="edge30" class="edge"><title>RetailPlan&#45;&gt;SupplyCharge</title>
<path fill="none" stroke="#6c0134" d="M655.3,-222.959C704.785,-212.589 783.843,-195.746 851.92,-180 856.559,-178.927 861.367,-177.791 866.189,-176.636"/>
<ellipse fill="none" stroke="#6c0134" cx="651.232" cy="-223.81" rx="4.00001" ry="4.00001"/>
<polygon fill="#6c0134" stroke="#6c0134" points="866.334,-176.601 877.111,-178.625 871.194,-175.426 876.054,-174.251 876.054,-174.251 876.054,-174.251 871.194,-175.426 874.996,-169.877 866.334,-176.601 866.334,-176.601"/>
</g>
<!-- Retailer -->
<g id="node20" class="node"><title>Retailer</title>
<ellipse fill="none" stroke="black" cx="606.92" cy="-306" rx="38.1937" ry="18"/>
<text text-anchor="middle" x="606.92" y="-301.8" font-family="Times,serif" font-size="14.00">Retailer</text>
</g>
<!-- Retailer&#45;&gt;RetailPlan -->
<g id="edge34" class="edge"><title>Retailer&#45;&gt;RetailPlan</title>
<path fill="none" stroke="#9c68bb" d="M606.92,-279.64C606.92,-274.063 606.92,-268.132 606.92,-262.476"/>
<ellipse fill="none" stroke="#9c68bb" cx="606.92" cy="-283.697" rx="4" ry="4"/>
<polygon fill="#9c68bb" stroke="#9c68bb" points="606.92,-262.104 611.42,-252.104 606.92,-257.104 606.92,-252.104 606.92,-252.104 606.92,-252.104 606.92,-257.104 602.42,-252.104 606.92,-262.104 606.92,-262.104"/>
</g>
<!-- Site -->
<g id="node21" class="node"><title>Site</title>
<ellipse fill="none" stroke="black" cx="1555.92" cy="-378" rx="27" ry="18"/>
<text text-anchor="middle" x="1555.92" y="-373.8" font-family="Times,serif" font-size="14.00">Site</text>
</g>
<!-- Site&#45;&gt;BillingSite -->
<g id="edge35" class="edge"><title>Site&#45;&gt;BillingSite</title>
<path fill="none" stroke="#a010a5" d="M1537.95,-355.684C1531.51,-348.045 1524.21,-339.373 1517.56,-331.486"/>
<ellipse fill="none" stroke="#a010a5" cx="1540.54" cy="-358.753" rx="4.00002" ry="4.00002"/>
<polygon fill="#a010a5" stroke="#a010a5" points="1517.38,-331.274 1514.38,-320.728 1514.16,-327.451 1510.93,-323.628 1510.93,-323.628 1510.93,-323.628 1514.16,-327.451 1507.49,-326.528 1517.38,-331.274 1517.38,-331.274"/>
</g>
<!-- Site&#45;&gt;Meter -->
<g id="edge36" class="edge"><title>Site&#45;&gt;Meter</title>
<path fill="none" stroke="#e57a7a" d="M1565.99,-350.994C1575.86,-325.526 1590.81,-286.921 1600.72,-261.34"/>
<polygon fill="#e57a7a" stroke="#e57a7a" points="1565.95,-351.108 1558.14,-358.808 1564.14,-355.77 1562.34,-360.433 1562.34,-360.433 1562.34,-360.433 1564.14,-355.77 1566.53,-362.058 1565.95,-351.108 1565.95,-351.108"/>
<polygon fill="#e57a7a" stroke="#e57a7a" points="1600.76,-261.227 1608.57,-253.527 1602.57,-256.564 1604.37,-251.902 1604.37,-251.902 1604.37,-251.902 1602.57,-256.564 1600.18,-250.276 1600.76,-261.227 1600.76,-261.227"/>
</g>
<!-- SupplyCharge&#45;&gt;ChargeFactory -->
<g id="edge38" class="edge"><title>SupplyCharge&#45;&gt;ChargeFactory</title>
<path fill="none" stroke="#1a9f3c" d="M868.366,-147.784C862.822,-146.47 857.261,-145.185 851.92,-144 780.573,-128.165 698.019,-112.191 643.599,-101.982"/>
<ellipse fill="none" stroke="#1a9f3c" cx="872.561" cy="-148.79" rx="4.00001" ry="4.00001"/>
<ellipse fill="#1a9f3c" stroke="#1a9f3c" cx="639.377" cy="-101.192" rx="4.00001" ry="4.00001"/>
</g>
<!-- SupplyCharge&#45;&gt;ConcreteCharge -->
<g id="edge37" class="edge"><title>SupplyCharge&#45;&gt;ConcreteCharge</title>
<path fill="none" stroke="#e29b84" d="M897.931,-138.641C870.992,-112.44 826.554,-69.219 799.107,-42.5247"/>
<ellipse fill="none" stroke="#e29b84" cx="901.019" cy="-141.644" rx="4.00002" ry="4.00002"/>
<polygon fill="#e29b84" stroke="#e29b84" points="799.014,-42.4338 794.983,-32.2357 795.43,-38.9477 791.845,-35.4616 791.845,-35.4616 791.845,-35.4616 795.43,-38.9477 788.708,-38.6875 799.014,-42.4338 799.014,-42.4338"/>
</g>
<!-- User -->
<g id="node23" class="node"><title>User</title>
<ellipse fill="none" stroke="black" cx="1583.92" cy="-468.5" rx="27" ry="18"/>
<text text-anchor="middle" x="1583.92" y="-464.3" font-family="Times,serif" font-size="14.00">User</text>
</g>
<!-- User&#45;&gt;BillingSite -->
<g id="edge41" class="edge"><title>User&#45;&gt;BillingSite</title>
<path fill="none" stroke="#da33ba" d="M1562.28,-445.667C1546.06,-428.895 1525.72,-406.826 1519.92,-396 1509.59,-376.711 1503.73,-352.558 1500.51,-334.282"/>
<polygon fill="#da33ba" stroke="#da33ba" points="1562.39,-445.781 1566.15,-456.082 1565.88,-449.361 1569.37,-452.941 1569.37,-452.941 1569.37,-452.941 1565.88,-449.361 1572.59,-449.799 1562.39,-445.781 1562.39,-445.781"/>
<polygon fill="#da33ba" stroke="#da33ba" points="1500.49,-334.155 1503.35,-323.569 1499.7,-329.218 1498.91,-324.281 1498.91,-324.281 1498.91,-324.281 1499.7,-329.218 1494.47,-324.994 1500.49,-334.155 1500.49,-334.155"/>
</g>
<!-- User&#45;&gt;FtpServer -->
<g id="edge39" class="edge"><title>User&#45;&gt;FtpServer</title>
<path fill="none" stroke="#3d6b7f" d="M1605.84,-448.099C1621.36,-434.364 1642.22,-415.903 1658.48,-401.518"/>
<ellipse fill="none" stroke="#3d6b7f" cx="1602.54" cy="-451.021" rx="4.00002" ry="4.00002"/>
<polygon fill="#3d6b7f" stroke="#3d6b7f" points="1658.55,-401.449 1669.02,-398.192 1662.3,-398.136 1666.04,-394.822 1666.04,-394.822 1666.04,-394.822 1662.3,-398.136 1663.06,-391.452 1658.55,-401.449 1658.55,-401.449"/>
</g>
<!-- User&#45;&gt;Meter -->
<g id="edge42" class="edge"><title>User&#45;&gt;Meter</title>
<path fill="none" stroke="#094e14" d="M1587.07,-440.355C1592.26,-395.649 1602.56,-307.031 1607.76,-262.254"/>
<polygon fill="#094e14" stroke="#094e14" points="1587.06,-440.47 1581.44,-449.885 1586.48,-445.437 1585.91,-450.404 1585.91,-450.404 1585.91,-450.404 1586.48,-445.437 1590.38,-450.923 1587.06,-440.47 1587.06,-440.47"/>
<polygon fill="#094e14" stroke="#094e14" points="1607.78,-262.055 1613.4,-252.64 1608.35,-257.088 1608.93,-252.121 1608.93,-252.121 1608.93,-252.121 1608.35,-257.088 1604.46,-251.602 1607.78,-262.055 1607.78,-262.055"/>
</g>
<!-- User&#45;&gt;Site -->
<g id="edge40" class="edge"><title>User&#45;&gt;Site</title>
<path fill="none" stroke="#76cda3" d="M1576.03,-442.55C1572.36,-430.965 1568,-417.185 1564.28,-405.422"/>
<ellipse fill="none" stroke="#76cda3" cx="1577.31" cy="-446.623" rx="4.00001" ry="4.00001"/>
<polygon fill="#76cda3" stroke="#76cda3" points="1564.22,-405.245 1565.5,-394.354 1562.72,-400.478 1561.21,-395.711 1561.21,-395.711 1561.21,-395.711 1562.72,-400.478 1556.92,-397.069 1564.22,-405.245 1564.22,-405.245"/>
</g>
</g>
</svg>
